<?xml version="1.0" encoding="utf-8"?>
<!-- Generator: Adobe Illustrator 25.2.1, SVG Export Plug-In . SVG Version: 6.00 Build 0)  -->
<svg version="1.1" id="Layer_1" xmlns="http://www.w3.org/2000/svg" xmlns:xlink="http://www.w3.org/1999/xlink" x="0px" y="0px"
	 viewBox="0 0 36 44" style="enable-background:new 0 0 36 44;" xml:space="preserve">
<path style="fill:#F44336;" d="M31.54,13.52c-0.76-0.86-2.14-0.72-2.71,0.27c-0.9,1.58-2.43,3.4-4.86,4.14
	c1.44-6.39-0.69-12.73-4.79-16.82c-0.65-0.65-1.71-0.65-2.36,0L5.28,12.65c-7.03,7.03-7.03,18.42,0,25.45
	c7.03,7.03,18.42,7.03,25.45,0C37.46,31.38,37.76,20.61,31.54,13.52z M14.93,38.77c-1.7-1.7-1.7-4.44,0-6.14L18,29.56l3.07,3.07h0
	c1.7,1.7,1.7,4.44,0,6.14C19.38,40.46,16.63,40.46,14.93,38.77z M25.3,38.09c0.87-2.67,0.25-5.7-1.87-7.83l-4.25-4.25
	c-0.65-0.65-1.71-0.65-2.36,0l-4.25,4.25c-2.12,2.12-2.74,5.16-1.87,7.83C2.32,33.28,0.85,21.8,7.64,15.02L17.92,4.73
	c3.02,3.9,4.18,9.22,2.14,14.62c-0.41,1.09,0.4,2.26,1.56,2.26c3.46,0,6.49-1.45,8.71-4.14C34.83,24.45,32.62,33.89,25.3,38.09z"/>
</svg>
