<?xml version="1.0" encoding="utf-8"?>
<!-- Generator: Adobe Illustrator 25.2.1, SVG Export Plug-In . SVG Version: 6.00 Build 0)  -->
<svg version="1.1" id="Layer_1" xmlns="http://www.w3.org/2000/svg" xmlns:xlink="http://www.w3.org/1999/xlink" x="0px" y="0px"
	 viewBox="0 0 24 24" style="enable-background:new 0 0 24 24;" xml:space="preserve">
<path style="fill-rule:evenodd;clip-rule:evenodd;fill:#FFFFFF;" d="M6.15,9.01l0.57,6.84c0.04,0.52,0.47,0.93,1,0.93l0,0h10.41l0,0
	c0.5,0,0.93-0.37,0.99-0.86l0.91-6.26c0.02-0.15-0.02-0.3-0.1-0.42c-0.09-0.12-0.22-0.2-0.37-0.22C19.36,9.01,11.08,9.01,6.15,9.01z
	 M7.72,18.2c-1.26,0-2.32-0.98-2.42-2.23L4.42,5.57L2.98,5.32C2.59,5.26,2.33,4.88,2.4,4.49C2.47,4.1,2.85,3.85,3.23,3.91l1.98,0.34
	C5.54,4.31,5.78,4.58,5.8,4.9l0.23,2.67c13.62,0.01,13.66,0.01,13.73,0.02c0.53,0.08,1,0.35,1.32,0.78
	c0.31,0.43,0.45,0.95,0.37,1.48l-0.91,6.26c-0.17,1.19-1.2,2.09-2.4,2.09h-0.01H7.72L7.72,18.2z"/>
<path style="fill-rule:evenodd;clip-rule:evenodd;fill:#FFFFFF;" d="M16.6,12.52h-2.64c-0.39,0-0.72-0.32-0.72-0.72
	s0.32-0.72,0.72-0.72h2.64c0.39,0,0.72,0.32,0.72,0.72C17.32,12.21,16.99,12.52,16.6,12.52z"/>
<path style="fill-rule:evenodd;clip-rule:evenodd;fill:#FFFFFF;" d="M7.31,20.78c0.29,0,0.52,0.23,0.52,0.52
	c0,0.29-0.23,0.52-0.52,0.52c-0.29,0-0.52-0.23-0.52-0.52C6.79,21.02,7.02,20.78,7.31,20.78z"/>
<path style="fill-rule:evenodd;clip-rule:evenodd;fill:#FFFFFF;" d="M7.3,21.11c-0.1,0-0.19,0.09-0.19,0.19c0,0.22,0.39,0.22,0.39,0
	C7.5,21.2,7.42,21.11,7.3,21.11z M7.3,22.54c-0.68,0-1.23-0.55-1.23-1.24c0-0.68,0.55-1.23,1.23-1.23s1.23,0.55,1.23,1.23
	C8.54,21.99,7.99,22.54,7.3,22.54z"/>
<path style="fill-rule:evenodd;clip-rule:evenodd;fill:#FFFFFF;" d="M18.07,20.78c0.29,0,0.52,0.23,0.52,0.52
	c0,0.29-0.23,0.52-0.52,0.52c-0.29,0-0.52-0.23-0.52-0.52C17.55,21.02,17.77,20.78,18.07,20.78z"/>
<path style="fill-rule:evenodd;clip-rule:evenodd;fill:#FFFFFF;" d="M18.07,21.11c-0.1,0-0.19,0.09-0.19,0.19
	c0,0.22,0.39,0.22,0.39,0C18.26,21.2,18.18,21.11,18.07,21.11z M18.07,22.54c-0.68,0-1.23-0.55-1.23-1.24
	c0-0.68,0.55-1.23,1.23-1.23c0.69,0,1.24,0.55,1.24,1.23C19.3,21.99,18.75,22.54,18.07,22.54z"/>
<path style="fill-rule:evenodd;clip-rule:evenodd;fill:#FFFFFF;" d="M10.13,4.9l-1.8-2.2c-0.3-0.3-0.2-0.8,0.1-1
	c0.3-0.3,0.8-0.2,1.1,0.1l1.8,2.1c0.3,0.3,0.2,0.8-0.1,1.1C10.83,5.2,10.43,5.2,10.13,4.9z"/>
<path style="fill-rule:evenodd;clip-rule:evenodd;fill:#FFFFFF;" d="M15.43,4.9c-0.3-0.2-0.4-0.7-0.1-1l1.8-2.1
	c0.3-0.3,0.7-0.4,1.1-0.1c0.3,0.3,0.4,0.7,0.1,1.1l-1.8,2.1C16.23,5.2,15.73,5.2,15.43,4.9z"/>
<path style="fill-rule:evenodd;clip-rule:evenodd;fill:#FFFFFF;" d="M14.03,1.6v2.8c0,0.4-0.3,0.8-0.8,0.8s-0.8-0.3-0.8-0.8V1.6
	c0-0.4,0.3-0.8,0.8-0.8C13.73,0.8,14.03,1.2,14.03,1.6z"/>
</svg>
