<?xml version="1.0" encoding="utf-8"?>
<!-- Generator: Adobe Illustrator 25.2.1, SVG Export Plug-In . SVG Version: 6.00 Build 0)  -->
<svg version="1.1" id="Layer_1" xmlns="http://www.w3.org/2000/svg" xmlns:xlink="http://www.w3.org/1999/xlink" x="0px" y="0px"
	 viewBox="0 0 24 24" style="enable-background:new 0 0 24 24;" xml:space="preserve">
<path style="fill-rule:evenodd;clip-rule:evenodd;fill:#FFFFFF;" d="M6.33,8.35l0.6,7.17c0.04,0.55,0.49,0.97,1.05,0.97h0h10.91h0
	c0.52,0,0.97-0.39,1.04-0.9l0.95-6.56c0.02-0.16-0.02-0.31-0.11-0.44c-0.09-0.13-0.23-0.21-0.39-0.23
	C20.18,8.36,11.5,8.35,6.33,8.35z M7.98,17.99c-1.32,0-2.43-1.03-2.54-2.34L4.52,4.75L3.01,4.49C2.6,4.42,2.33,4.03,2.4,3.62
	c0.07-0.41,0.47-0.68,0.87-0.61l2.08,0.36c0.34,0.06,0.59,0.34,0.62,0.68l0.24,2.8c14.28,0.01,14.32,0.01,14.39,0.02
	c0.56,0.08,1.05,0.37,1.38,0.82c0.33,0.45,0.47,1,0.39,1.55l-0.95,6.56c-0.18,1.25-1.26,2.19-2.52,2.19h-0.01H7.98L7.98,17.99z"/>
<path style="fill-rule:evenodd;clip-rule:evenodd;fill:#FFFFFF;" d="M17.29,12.04h-2.77c-0.41,0-0.75-0.34-0.75-0.75
	c0-0.41,0.34-0.75,0.75-0.75h2.77c0.41,0,0.75,0.34,0.75,0.75C18.04,11.71,17.7,12.04,17.29,12.04z"/>
<path style="fill-rule:evenodd;clip-rule:evenodd;fill:#FFFFFF;" d="M7.55,20.7c0.3,0,0.54,0.24,0.54,0.54
	c0,0.3-0.24,0.55-0.54,0.55c-0.3,0-0.55-0.24-0.55-0.55C7,20.95,7.24,20.7,7.55,20.7z"/>
<path style="fill-rule:evenodd;clip-rule:evenodd;fill:#FFFFFF;" d="M7.54,21.04c-0.11,0-0.2,0.09-0.2,0.2c0,0.23,0.41,0.23,0.41,0
	C7.75,21.13,7.66,21.04,7.54,21.04z M7.54,22.54c-0.71,0-1.29-0.58-1.29-1.3c0-0.71,0.58-1.29,1.29-1.29s1.29,0.58,1.29,1.29
	C8.84,21.96,8.26,22.54,7.54,22.54z"/>
<path style="fill-rule:evenodd;clip-rule:evenodd;fill:#FFFFFF;" d="M18.83,20.7c0.3,0,0.55,0.24,0.55,0.54
	c0,0.3-0.24,0.55-0.55,0.55c-0.3,0-0.55-0.24-0.55-0.55C18.28,20.95,18.52,20.7,18.83,20.7z"/>
<path style="fill-rule:evenodd;clip-rule:evenodd;fill:#FFFFFF;" d="M18.83,21.04c-0.11,0-0.2,0.09-0.2,0.2c0,0.23,0.41,0.23,0.41,0
	C19.03,21.13,18.94,21.04,18.83,21.04z M18.83,22.54c-0.71,0-1.29-0.58-1.29-1.3c0-0.71,0.58-1.29,1.29-1.29
	c0.72,0,1.3,0.58,1.3,1.29C20.12,21.96,19.54,22.54,18.83,22.54z"/>
</svg>
