<?xml version="1.0" encoding="utf-8"?>
<!-- Generator: Adobe Illustrator 25.2.1, SVG Export Plug-In . SVG Version: 6.00 Build 0)  -->
<svg version="1.1" id="Layer_1" xmlns="http://www.w3.org/2000/svg" xmlns:xlink="http://www.w3.org/1999/xlink" x="0px" y="0px"
	 viewBox="0 0 100 100" style="enable-background:new 0 0 100 100;" xml:space="preserve">
<path d="M50,67c-3.5,0-6.7-1.2-8.7-3.4c-0.9-0.9-0.9-2.4,0.1-3.3c0.9-0.9,2.4-0.9,3.3,0.1c1.2,1.2,3.2,1.9,5.4,1.9
	c2.2,0,4.2-0.7,5.4-1.9c0.9-0.9,2.4-1,3.3-0.1c0.9,0.9,1,2.4,0.1,3.3C56.7,65.8,53.5,67,50,67z M87.6,34.4c-1.2,0-2.4,0.3-3.4,0.8
	C79.1,21.3,65.7,11.3,50,11.3s-29.1,9.9-34.2,23.9c-1-0.5-2.2-0.8-3.4-0.8c-4.1,0-7.4,3.3-7.4,7.4V55c0,4.1,3.3,7.4,7.4,7.4
	c4.1,0,7.4-3.3,7.4-7.4V41.7c0-0.8-0.1-1.7-0.4-2.4C23.1,25.9,35.4,16,50,16s26.9,9.9,30.6,23.3c-0.3,0.8-0.4,1.6-0.4,2.4V55
	c0,0.6,0.1,1.3,0.2,1.9C77.1,68,67.8,76.6,56.2,78.9C55.1,76.6,52.7,75,50,75c-3.8,0-6.8,3.1-6.8,6.8c0,3.8,3.1,6.8,6.8,6.8
	c3.2,0,5.8-2.1,6.6-5.1C69,81.3,79.2,72.7,83.8,61.3c1.1,0.7,2.4,1,3.8,1c4.1,0,7.4-3.3,7.4-7.4V41.7C95,37.7,91.7,34.4,87.6,34.4z
	 M37.1,37.2c-1.3,0-2.3,1-2.3,2.3v6.4c0,1.3,1,2.3,2.3,2.3c1.3,0,2.3-1,2.3-2.3v-6.4C39.4,38.2,38.4,37.2,37.1,37.2z M65.2,45.9
	v-6.4c0-1.3-1-2.3-2.3-2.3c-1.3,0-2.3,1-2.3,2.3v6.4c0,1.3,1,2.3,2.3,2.3C64.2,48.2,65.2,47.2,65.2,45.9z"/>
</svg>
