<?xml version="1.0" encoding="utf-8"?>
<!-- Generator: Adobe Illustrator 25.2.1, SVG Export Plug-In . SVG Version: 6.00 Build 0)  -->
<svg version="1.1" id="Layer_1" xmlns="http://www.w3.org/2000/svg" xmlns:xlink="http://www.w3.org/1999/xlink" x="0px" y="0px"
	 viewBox="0 0 52 52" style="enable-background:new 0 0 52 52;" xml:space="preserve">
<path style="fill:#0F62F9;stroke:#0F62F9;stroke-width:0.2;" d="M36.1,11.6c0.4,0,0.8-0.4,0.8-0.8V7c0-1.7-1.4-3.1-3-3.1h-21
	c-1.7,0-3,1.4-3,3.1v38c0,1.7,1.4,3.1,3,3.1h20.9c1.7,0,3-1.4,3-3.1V32.8c0-0.4-0.4-0.8-0.8-0.8c-0.4,0-0.8,0.4-0.8,0.8V45
	c0,0.8-0.6,1.5-1.4,1.5H12.9c-0.8,0-1.4-0.7-1.4-1.5V7c0-0.8,0.6-1.5,1.4-1.5h20.9c0.8,0,1.4,0.7,1.4,1.5v3.8
	C35.3,11.2,35.6,11.6,36.1,11.6z"/>
<path style="fill:#0F62F9;stroke:#0F62F9;stroke-width:0.2;" d="M24.9,6.9h-3c-0.4,0-0.8,0.4-0.8,0.8s0.4,0.8,0.8,0.8h3
	c0.4,0,0.8-0.4,0.8-0.8C25.7,7.3,25.3,6.9,24.9,6.9z"/>
<path style="fill:#0F62F9;stroke:#0F62F9;stroke-width:0.2;" d="M18.9,6.9L18.9,6.9c0.5,0,0.8,0.4,0.8,0.8L18.9,6.9z M18.9,6.9
	c-0.4,0-0.8,0.4-0.8,0.8 M18.9,6.9l-0.8,0.8 M18.1,7.8c0,0.4,0.4,0.8,0.8,0.8 M18.1,7.8l0.8,0.8 M18.9,8.6c0.4,0,0.8-0.4,0.8-0.8
	L18.9,8.6z"/>
<path style="fill:#0F62F9;stroke:#0F62F9;stroke-width:0.2;" d="M24.9,43.4h-3c-0.4,0-0.8,0.4-0.8,0.8c0,0.4,0.4,0.8,0.8,0.8h3
	c0.4,0,0.8-0.4,0.8-0.8C25.7,43.8,25.3,43.4,24.9,43.4z"/>
<path style="fill:#0F62F9;stroke:#0F62F9;stroke-width:0.2;" d="M33.1,32.8c-0.4,0-0.8,0.4-0.8,0.8v6.8H14.5V11.6h18.6
	c0.4,0,0.8-0.4,0.8-0.8c0-0.4-0.4-0.8-0.8-0.8H13.7c-0.4,0-0.8,0.4-0.8,0.8v30.4c0,0.4,0.4,0.8,0.8,0.8h19.4c0.4,0,0.8-0.4,0.8-0.8
	v-7.6C33.9,33.2,33.5,32.8,33.1,32.8z"/>
<path style="fill:#5DAC46;stroke:#5DAC46;stroke-width:0.5;" d="M28.9,28.5l-0.1,0.2c-0.9,1.5-1.9,2.3-1.9,2.4
	c-0.1,0.1-0.2,0.3-0.1,0.5s0.2,0.2,0.4,0.2L28.9,28.5z M28.9,28.5l-0.2-0.1c-1.7-1.5-2.7-3.7-2.7-6c0-4.4,3.5-8,7.8-8s7.8,3.6,7.8,8
	s-3.5,8-7.8,8c-0.7,0-1.4-0.1-2.1-0.3h-0.1l-0.1,0.1c-2.1,1.4-4.4,1.6-4.5,1.6L28.9,28.5z M28.2,30.8l0.5-0.6c0.3-0.4,0.7-1,1-1.6
	c0.1-0.2,0-0.4-0.1-0.5c-1.8-1.4-2.8-3.5-2.8-5.7c0-4,3.2-7.2,7.1-7.2s7.1,3.2,7.1,7.2s-3.2,7.2-7.1,7.2c-0.7,0-1.4-0.1-2.1-0.3
	L28.2,30.8z M28.2,30.8l0.7-0.2 M28.2,30.8l0.7-0.2 M29,30.5c0.8-0.2,1.6-0.6,2.5-1.2 M29,30.5l2.5-1.2 M31.4,29.3
	c0.1-0.1,0.2-0.1,0.3-0.1L31.4,29.3z"/>
<path style="fill:#5DAC46;stroke:#5DAC46;stroke-width:0.5;" d="M38.3,20.4c-0.2-0.2-0.5-0.2-0.7,0l-4.3,4.3l-2.2-2.3
	c-0.2-0.2-0.5-0.2-0.7,0s-0.2,0.5,0,0.7l2.6,2.6c0.1,0.1,0.2,0.1,0.3,0.1s0.2,0,0.3-0.1l4.6-4.7C38.5,20.9,38.5,20.6,38.3,20.4z"/>
<path style="fill:#0F62F9;stroke:#0F62F9;stroke-width:0.2;" d="M22.6,29h-5.2c-0.4,0-0.8,0.4-0.8,0.8s0.4,0.8,0.8,0.8h5.2
	c0.4,0,0.8-0.4,0.8-0.8C23.4,29.4,23.1,29,22.6,29z"/>
<path style="fill:#0F62F9;stroke:#0F62F9;stroke-width:0.2;" d="M19.7,26h-2.2c-0.4,0-0.8,0.4-0.8,0.8s0.4,0.8,0.8,0.8h2.2
	c0.4,0,0.8-0.4,0.8-0.8C20.5,26.3,20.1,26,19.7,26z"/>
<path style="fill:#0F62F9;stroke:#0F62F9;stroke-width:0.2;" d="M22.6,32h-5.2c-0.4,0-0.8,0.4-0.8,0.8c0,0.4,0.4,0.8,0.8,0.8h5.2
	c0.4,0,0.8-0.4,0.8-0.8C23.4,32.4,23.1,32,22.6,32z"/>
<path style="fill:#0F62F9;stroke:#0F62F9;stroke-width:0.2;" d="M18.9,37.4h-1.5c-0.4,0-0.8,0.4-0.8,0.8c0,0.4,0.4,0.8,0.8,0.8h1.5
	c0.4,0,0.8-0.4,0.8-0.8C19.7,37.7,19.4,37.4,18.9,37.4z"/>
<path style="fill:#0F62F9;stroke:#0F62F9;stroke-width:0.2;" d="M29.4,37.4h-1.5c-0.4,0-0.8,0.4-0.8,0.8c0,0.4,0.4,0.8,0.8,0.8h1.5
	c0.4,0,0.8-0.4,0.8-0.8C30.2,37.7,29.8,37.4,29.4,37.4z"/>
<path style="fill:#0F62F9;stroke:#0F62F9;stroke-width:0.2;" d="M24.1,37.4h-1.5c-0.4,0-0.8,0.4-0.8,0.8c0,0.4,0.4,0.8,0.8,0.8h1.5
	c0.4,0,0.8-0.4,0.8-0.8C24.9,37.7,24.6,37.4,24.1,37.4z"/>
</svg>
