<?xml version="1.0" encoding="utf-8"?>
<!-- Generator: Adobe Illustrator 25.2.1, SVG Export Plug-In . SVG Version: 6.00 Build 0)  -->
<svg version="1.1" id="Layer_1" xmlns="http://www.w3.org/2000/svg" xmlns:xlink="http://www.w3.org/1999/xlink" x="0px" y="0px"
	 viewBox="0 0 24 24" style="enable-background:new 0 0 24 24;" xml:space="preserve">
<rect style="display:none;" width="24" height="24"/>
<g>
	<path style="fill-rule:evenodd;clip-rule:evenodd;fill:#FFFFFF;" d="M5.54,8.27l0.51,6.05c0.03,0.46,0.41,0.82,0.89,0.82l0,0h9.21
		l0,0c0.44,0,0.82-0.33,0.88-0.76l0.8-5.53c0.02-0.13-0.02-0.26-0.09-0.37c-0.08-0.11-0.19-0.18-0.33-0.19
		C17.23,8.28,9.91,8.27,5.54,8.27z M6.94,16.4c-1.11,0-2.05-0.87-2.14-1.97l-0.78-9.2L2.74,5.01C2.4,4.96,2.17,4.63,2.23,4.28
		s0.4-0.57,0.73-0.51l1.75,0.3C5,4.12,5.21,4.36,5.23,4.64L5.43,7c12.05,0.01,12.08,0.01,12.14,0.02c0.47,0.07,0.89,0.31,1.16,0.69
		c0.28,0.38,0.4,0.84,0.33,1.31l-0.8,5.53c-0.15,1.05-1.06,1.85-2.13,1.85h-0.01L6.94,16.4L6.94,16.4z"/>
	<path style="fill-rule:evenodd;clip-rule:evenodd;fill:#FFFFFF;" d="M6.57,18.69c0.25,0,0.46,0.2,0.46,0.46
		c0,0.25-0.2,0.46-0.46,0.46c-0.25,0-0.46-0.2-0.46-0.46C6.11,18.9,6.31,18.69,6.57,18.69z"/>
	<path style="fill-rule:evenodd;clip-rule:evenodd;fill:#FFFFFF;" d="M6.57,18.98c-0.09,0-0.17,0.08-0.17,0.17
		c0,0.19,0.35,0.19,0.35,0C6.74,19.05,6.67,18.98,6.57,18.98z M6.57,20.24c-0.6,0-1.09-0.49-1.09-1.1c0-0.6,0.49-1.09,1.09-1.09
		s1.09,0.49,1.09,1.09C7.66,19.75,7.17,20.24,6.57,20.24z"/>
	<path style="fill-rule:evenodd;clip-rule:evenodd;fill:#FFFFFF;" d="M16.09,18.69c0.25,0,0.46,0.2,0.46,0.46
		c0,0.25-0.2,0.46-0.46,0.46c-0.25,0-0.46-0.2-0.46-0.46C15.63,18.9,15.83,18.69,16.09,18.69z"/>
	<path style="fill-rule:evenodd;clip-rule:evenodd;fill:#FFFFFF;" d="M16.09,18.98c-0.09,0-0.17,0.08-0.17,0.17
		c0,0.19,0.35,0.19,0.35,0C16.26,19.05,16.18,18.98,16.09,18.98z M16.09,20.24c-0.6,0-1.09-0.49-1.09-1.1c0-0.6,0.49-1.09,1.09-1.09
		c0.61,0,1.1,0.49,1.1,1.09C17.18,19.75,16.69,20.24,16.09,20.24z"/>
	<path style="fill:#FFFFFF;stroke:#FFFFFF;stroke-width:0.8;stroke-miterlimit:10;" d="M22.38,10.94l-1.68,1.7
		c-0.1,0.1-0.29,0.1-0.39,0c-0.1-0.1-0.1-0.29,0-0.39l1.49-1.5l-1.5-1.49c-0.1-0.1-0.1-0.29,0-0.39c0.1-0.1,0.29-0.1,0.39,0
		l1.7,1.68c0.05,0.05,0.08,0.12,0.08,0.2C22.46,10.82,22.43,10.89,22.38,10.94"/>
	<path style="fill-rule:evenodd;clip-rule:evenodd;fill:#FFFFFF;" d="M21.04,10.12h-1.8H18.7h-1.71H16.9h-2.11h-0.13h-2.2
		c-0.35,0-0.63,0.29-0.63,0.63c0,0.35,0.29,0.63,0.63,0.63h2.2h0.13h2.11h0.09h1.71h0.54h1.8c0.35,0,0.63-0.28,0.63-0.63
		C21.67,10.41,21.39,10.12,21.04,10.12z"/>
</g>
</svg>
