<?xml version="1.0" encoding="utf-8"?>
<!-- Generator: Adobe Illustrator 25.2.1, SVG Export Plug-In . SVG Version: 6.00 Build 0)  -->
<svg version="1.1" id="Layer_1" xmlns="http://www.w3.org/2000/svg" xmlns:xlink="http://www.w3.org/1999/xlink" x="0px" y="0px"
	 viewBox="0 0 52 52" style="enable-background:new 0 0 52 52;" xml:space="preserve">
<path style="fill:#0F62F9;" d="M47.5,28.6l-1.3-5.2c0.4-0.1,0.6-0.4,0.6-0.8v-0.8c0-1.8-1.5-3.3-3.3-3.3h-5.9v-1.7
	c0-0.9-0.7-1.6-1.6-1.6H25l6.7-2.7c0.4-0.2,0.6-0.6,0.4-1c-0.2-0.4-0.6-0.6-1-0.4L25.7,13c1.7-1.1,3.3-2.3,3.9-3.1
	c1.2-1.6,0.9-3.9-0.7-5.2c-1.6-1.2-3.9-0.9-5.1,0.7c-0.9,1.2-2.1,4.5-2.8,6.8c-0.8-2.3-1.9-5.7-2.8-6.8c-1.2-1.6-3.5-1.9-5.1-0.7
	s-1.9,3.6-0.7,5.2c0.6,0.8,2.3,2,3.9,3.1l-5.5-2.2c-0.4-0.2-0.9,0-1,0.4c-0.2,0.4,0,0.9,0.4,1l6.7,2.7H6c-0.9,0-1.6,0.7-1.6,1.6V31
	c0,0.4,0.4,0.8,0.8,0.8S6,31.4,6,31V16.6c0,0,0-0.1,0.1-0.1H36c0,0,0.1,0,0.1,0.1V31c0,0.4,0.4,0.8,0.8,0.8s0.8-0.4,0.8-0.8v-0.9
	h9.2l0,0l0,0c1.1,0,2.1,0.8,2.4,1.8h-2.4c-0.4,0-0.8,0.4-0.8,0.8v1.7c0,1.4,1.1,2.5,2.5,2.5h0.9v3.5h-2c-0.7-2-2.5-3.4-4.7-3.4
	s-4,1.4-4.7,3.4h-0.4v-6c0-0.4-0.4-0.8-0.8-0.8c-0.4,0-0.8,0.4-0.8,0.8v6H19.8c-0.7-2-2.5-3.4-4.7-3.4s-4,1.4-4.7,3.4H6
	c0,0-0.1,0-0.1-0.1v-1.7h3.4c0.4,0,0.8-0.4,0.8-0.8c0-0.4-0.4-0.8-0.8-0.8H1.8C1.4,37,1,37.3,1,37.8c0,0.4,0.4,0.8,0.8,0.8h2.6v1.7
	c0,0.9,0.7,1.6,1.6,1.6h4.2c0,0,0,0,0,0.1c0,2.8,2.2,5,5,5s5-2.3,5-5c0,0,0,0,0-0.1h17.6c0,0,0,0,0,0.1c0,2.8,2.2,5,5,5
	c2.7,0,5-2.3,5-5c0,0,0,0,0-0.1h2.6c0.4,0,0.8-0.4,0.8-0.8v-8.5C51,30.6,49.5,28.9,47.5,28.6z M17.9,12.2c-3.1-1.9-4-2.8-4.3-3.2
	c-0.7-1-0.5-2.3,0.4-3c0.4-0.3,0.8-0.4,1.3-0.4c0.6,0,1.2,0.3,1.7,0.8c0.8,1,1.9,4.4,2.7,6.8C19.1,12.9,18.5,12.6,17.9,12.2z
	 M22.3,13.2c0.8-2.4,2-5.8,2.7-6.8c0.7-0.9,2-1.1,2.9-0.4s1.1,2,0.4,3c-0.3,0.4-1.2,1.3-4.3,3.2C23.5,12.6,22.9,12.9,22.3,13.2z
	 M37.6,20h5.9c0.9,0,1.7,0.8,1.7,1.7v0.1h-7.6C37.6,21.8,37.6,20,37.6,20z M37.6,28.5v-5.2h7l1.3,5.2H37.6z M15.1,45.4
	c-1.9,0-3.4-1.5-3.4-3.4s1.5-3.4,3.4-3.4s3.4,1.5,3.4,3.4S17,45.4,15.1,45.4z M42.7,45.4c-1.9,0-3.4-1.5-3.4-3.4s1.5-3.4,3.4-3.4
	s3.4,1.5,3.4,3.4C46.1,43.9,44.6,45.4,42.7,45.4z M49.4,35.3h-0.9c-0.5,0-0.9-0.4-0.9-0.9v-0.9h1.8L49.4,35.3L49.4,35.3z"/>
<path style="fill:#0F62F9;" d="M15.1,40.3c-0.9,0-1.6,0.7-1.6,1.6c0,0.9,0.7,1.6,1.6,1.6c0.9,0,1.6-0.7,1.6-1.6
	C16.8,41.1,16,40.3,15.1,40.3z"/>
<path style="fill:#0F62F9;" d="M42.7,40.3c-0.9,0-1.6,0.7-1.6,1.6c0,0.9,0.7,1.6,1.6,1.6c0.9,0,1.6-0.7,1.6-1.6
	C44.3,41.1,43.6,40.3,42.7,40.3z"/>
<path style="fill:#0F62F9;" d="M33.5,37H21.8c-0.4,0-0.8,0.4-0.8,0.8c0,0.4,0.4,0.8,0.8,0.8h11.7c0.4,0,0.8-0.4,0.8-0.8
	C34.3,37.3,33.9,37,33.5,37z"/>
<path style="fill:#0F62F9;" d="M13.5,33.6h-10c-0.4,0-0.8,0.4-0.8,0.8c0,0.4,0.4,0.8,0.8,0.8h10c0.4,0,0.8-0.4,0.8-0.8
	C14.3,33.9,13.9,33.6,13.5,33.6z"/>
<path style="fill:#5DAC46;" d="M13.5,21.7h-3.3c-0.4,0-0.8,0.4-0.8,0.8v6.8c0,0.4,0.4,0.8,0.8,0.8c0.4,0,0.8-0.4,0.8-0.8v-2.6h1.7
	c0.4,0,0.8-0.4,0.8-0.8s-0.4-0.8-0.8-0.8H11v-1.8h2.6c0.4,0,0.8-0.4,0.8-0.8S13.9,21.7,13.5,21.7z"/>
<path style="fill:#5DAC46;" d="M19.6,27.1c0.8-0.5,1.3-1.4,1.3-2.4c0-1.6-1.3-2.9-2.9-2.9h-2c-0.4,0-0.8,0.4-0.8,0.8v6.8
	c0,0.4,0.4,0.8,0.8,0.8c0.4,0,0.8-0.4,0.8-0.8v-1.7h1.3l1.4,2.2c0.2,0.2,0.4,0.4,0.7,0.4c0.1,0,0.3,0,0.4-0.1
	c0.4-0.2,0.5-0.7,0.2-1.1L19.6,27.1z M18.1,26h-1.3v-2.6h1.3c0.7,0,1.3,0.6,1.3,1.3S18.8,26,18.1,26z"/>
<path style="fill:#5DAC46;" d="M26,28.5h-2.6v-1.8c0,0,0,0,0.1,0h1.7c0.4,0,0.8-0.4,0.8-0.8s-0.4-0.8-0.8-0.8h-1.7c0,0,0,0-0.1,0
	v-1.8H26c0.4,0,0.8-0.4,0.8-0.8s-0.4-0.8-0.8-0.8h-3.3c-0.4,0-0.8,0.4-0.8,0.8v6.8c0,0.4,0.4,0.8,0.8,0.8H26c0.4,0,0.8-0.4,0.8-0.8
	C26.8,28.9,26.4,28.5,26,28.5z"/>
<path style="fill:#5DAC46;" d="M31.8,28.5h-2.6v-1.8h0.9c0.4,0,0.8-0.4,0.8-0.8s-0.4-0.8-0.8-0.8h-0.9v-1.8h2.6
	c0.4,0,0.8-0.4,0.8-0.8s-0.4-0.8-0.8-0.8h-3.3c-0.4,0-0.8,0.4-0.8,0.8v6.8c0,0.4,0.4,0.8,0.8,0.8h3.3c0.4,0,0.8-0.4,0.8-0.8
	C32.6,28.9,32.3,28.5,31.8,28.5z"/>
</svg>
