<?xml version="1.0" encoding="utf-8"?>
<!-- Generator: Adobe Illustrator 25.2.1, SVG Export Plug-In . SVG Version: 6.00 Build 0)  -->
<svg version="1.1" id="Layer_1" xmlns="http://www.w3.org/2000/svg" xmlns:xlink="http://www.w3.org/1999/xlink" x="0px" y="0px"
	 viewBox="0 0 52 52" style="enable-background:new 0 0 52 52;" xml:space="preserve">
<path style="fill-rule:evenodd;clip-rule:evenodd;fill:#0F62F9;" d="M30.8,4.3l7.6,7.6c0.2,0.2,0.3,0.4,0.3,0.6v16.2
	c0,0.5-0.4,0.9-0.9,0.9s-0.9-0.4-0.9-0.9V13.4h-5.1c-1.4,0-2.6-1.2-2.6-2.6V5.7H6.6c-0.5,0-0.9,0.4-0.9,0.9v38.8
	c0,0.5,0.4,0.9,0.9,0.9H23c0.5,0,0.9,0.4,0.9,0.9S23.5,48,23,48H6.6C5.2,48,4,46.8,4,45.4V6.6C4,5.2,5.2,4,6.6,4h23.6
	C30.4,4,30.7,4.1,30.8,4.3z M31.1,10.8c0,0.5,0.4,0.9,0.9,0.9h3.9L31.2,7v3.8H31.1z"/>
<path style="fill:#0F62F9;" d="M17.4,28.1h14.9c0.5,0,0.9,0.4,0.9,0.9s-0.4,0.9-0.9,0.9H17.4c-0.5,0-0.9-0.4-0.9-0.9
	C16.6,28.4,17,28.1,17.4,28.1z"/>
<path style="fill:#0F62F9;" d="M13.2,28.1h-2.8c-0.5,0-0.9,0.4-0.9,0.9s0.4,0.9,0.9,0.9h2.8c0.5,0,0.9-0.4,0.9-0.9
	C14,28.4,13.6,28.1,13.2,28.1z"/>
<path style="fill:#0F62F9;" d="M17.4,32.9H26c0.5,0,0.9,0.4,0.9,0.9s-0.4,0.9-0.9,0.9h-8.6c-0.5,0-0.9-0.4-0.9-0.9
	C16.6,33.3,17,32.9,17.4,32.9z"/>
<path style="fill:#0F62F9;" d="M13.2,32.9h-2.8c-0.5,0-0.9,0.4-0.9,0.9s0.4,0.9,0.9,0.9h2.8c0.5,0,0.9-0.4,0.9-0.9
	C14,33.3,13.6,32.9,13.2,32.9z"/>
<path style="fill:#0F62F9;" d="M17.4,37.7c0.2,0,0.4,0.1,0.6,0.3s0.3,0.4,0.3,0.6c0,0.2-0.1,0.4-0.3,0.6c-0.2,0.2-0.4,0.3-0.6,0.3
	s-0.4-0.1-0.6-0.3s-0.3-0.4-0.3-0.6c0-0.2,0.1-0.4,0.3-0.6C17,37.8,17.2,37.7,17.4,37.7z"/>
<path style="fill:#0F62F9;" d="M13.2,37.7h-2.8c-0.5,0-0.9,0.4-0.9,0.9s0.4,0.9,0.9,0.9h2.8c0.5,0,0.9-0.4,0.9-0.9
	C14,38.1,13.6,37.7,13.2,37.7z"/>
<path style="fill-rule:evenodd;clip-rule:evenodd;fill:#0F62F9;" d="M41.9,37.4c0.2,0,0.5-0.1,0.7-0.1c2.9,0,5.3,2.4,5.3,5.3
	c0,2.9-2.4,5.3-5.3,5.3c-2.9,0-5.2-2.3-5.3-5.1l-3.6,3.6c-1,1-2.4,1.6-3.8,1.6s-2.7-0.5-3.8-1.6c-1-1-1.6-2.3-1.6-3.8
	s0.6-2.8,1.6-3.8l6.8-6.8c1-1,2.3-1.6,3.8-1.6c1.4,0,2.8,0.6,3.8,1.6C42,33.5,42.5,35.6,41.9,37.4z M27.5,45.2
	c1.4,1.4,3.7,1.4,5.1,0l2.8-2.8l-5.1-5.1l-2.8,2.8c-0.7,0.7-1.1,1.6-1.1,2.6C26.4,43.6,26.8,44.5,27.5,45.2z M31.5,36.1l5.1,5.1
	l2.8-2.8c1.4-1.4,1.4-3.7,0-5.1c-0.7-0.7-1.6-1.1-2.6-1.1s-1.9,0.4-2.6,1.1L31.5,36.1z M39.1,42.7c0,1.7,1.2,3.1,2.7,3.5v-7
	C40.2,39.6,39.1,41,39.1,42.7z M43.5,39.2v7c1.6-0.4,2.7-1.8,2.7-3.5C46.3,41,45.1,39.6,43.5,39.2z"/>
<path style="fill:none;stroke:#0F62F9;stroke-width:0.5;stroke-linecap:square;stroke-miterlimit:10;" d="M30.8,4.3l7.6,7.6
	c0.2,0.2,0.3,0.4,0.3,0.6v16.2c0,0.5-0.4,0.9-0.9,0.9s-0.9-0.4-0.9-0.9V13.4h-5.1c-1.4,0-2.6-1.2-2.6-2.6V5.7H6.6
	c-0.5,0-0.9,0.4-0.9,0.9v38.8c0,0.5,0.4,0.9,0.9,0.9H23c0.5,0,0.9,0.4,0.9,0.9S23.5,48,23,48H6.6C5.2,48,4,46.8,4,45.4V6.6
	C4,5.2,5.2,4,6.6,4h23.6C30.4,4,30.7,4.1,30.8,4.3z M31.1,10.8c0,0.5,0.4,0.9,0.9,0.9h3.9L31.2,7v3.8H31.1z"/>
<path style="fill:none;stroke:#0F62F9;stroke-width:0.5;stroke-linecap:square;stroke-miterlimit:10;" d="M17.4,28.1h14.9
	c0.5,0,0.9,0.4,0.9,0.9s-0.4,0.9-0.9,0.9H17.4c-0.5,0-0.9-0.4-0.9-0.9C16.6,28.4,17,28.1,17.4,28.1z"/>
<path style="fill:none;stroke:#0F62F9;stroke-width:0.5;stroke-linecap:square;stroke-miterlimit:10;" d="M13.2,28.1h-2.8
	c-0.5,0-0.9,0.4-0.9,0.9s0.4,0.9,0.9,0.9h2.8c0.5,0,0.9-0.4,0.9-0.9C14,28.4,13.6,28.1,13.2,28.1z"/>
<path style="fill:none;stroke:#0F62F9;stroke-width:0.5;stroke-linecap:square;stroke-miterlimit:10;" d="M17.4,32.9H26
	c0.5,0,0.9,0.4,0.9,0.9s-0.4,0.9-0.9,0.9h-8.6c-0.5,0-0.9-0.4-0.9-0.9C16.6,33.3,17,32.9,17.4,32.9z"/>
<path style="fill:none;stroke:#0F62F9;stroke-width:0.5;stroke-linecap:square;stroke-miterlimit:10;" d="M13.2,32.9h-2.8
	c-0.5,0-0.9,0.4-0.9,0.9s0.4,0.9,0.9,0.9h2.8c0.5,0,0.9-0.4,0.9-0.9C14,33.3,13.6,32.9,13.2,32.9z"/>
<path style="fill:none;stroke:#0F62F9;stroke-width:0.5;stroke-linecap:square;stroke-miterlimit:10;" d="M17.4,37.7
	c0.2,0,0.4,0.1,0.6,0.3s0.3,0.4,0.3,0.6c0,0.2-0.1,0.4-0.3,0.6c-0.2,0.2-0.4,0.3-0.6,0.3s-0.4-0.1-0.6-0.3s-0.3-0.4-0.3-0.6
	c0-0.2,0.1-0.4,0.3-0.6C17,37.8,17.2,37.7,17.4,37.7z"/>
<path style="fill:none;stroke:#0F62F9;stroke-width:0.5;stroke-linecap:square;stroke-miterlimit:10;" d="M13.2,37.7h-2.8
	c-0.5,0-0.9,0.4-0.9,0.9s0.4,0.9,0.9,0.9h2.8c0.5,0,0.9-0.4,0.9-0.9C14,38.1,13.6,37.7,13.2,37.7z"/>
<path style="fill:none;stroke:#0F62F9;stroke-width:0.5;stroke-linecap:square;stroke-miterlimit:10;" d="M41.9,37.4
	c0.2,0,0.5-0.1,0.7-0.1c2.9,0,5.3,2.4,5.3,5.3c0,2.9-2.4,5.3-5.3,5.3c-2.9,0-5.2-2.3-5.3-5.1l-3.6,3.6c-1,1-2.4,1.6-3.8,1.6
	s-2.7-0.5-3.8-1.6c-1-1-1.6-2.3-1.6-3.8s0.6-2.8,1.6-3.8l6.8-6.8c1-1,2.3-1.6,3.8-1.6c1.4,0,2.8,0.6,3.8,1.6
	C42,33.5,42.5,35.6,41.9,37.4z M27.5,45.2c1.4,1.4,3.7,1.4,5.1,0l2.8-2.8l-5.1-5.1l-2.8,2.8c-0.7,0.7-1.1,1.6-1.1,2.6
	C26.4,43.6,26.8,44.5,27.5,45.2z M31.5,36.1l5.1,5.1l2.8-2.8c1.4-1.4,1.4-3.7,0-5.1c-0.7-0.7-1.6-1.1-2.6-1.1s-1.9,0.4-2.6,1.1
	L31.5,36.1z M39.1,42.7c0,1.7,1.2,3.1,2.7,3.5v-7C40.2,39.6,39.1,41,39.1,42.7z M43.5,39.2v7c1.6-0.4,2.7-1.8,2.7-3.5
	C46.3,41,45.1,39.6,43.5,39.2z"/>
<path style="fill-rule:evenodd;clip-rule:evenodd;fill:#5DAC46;" d="M22,9.1v1.4c1,0.1,1.9,0.4,2.5,0.7l0.9,0.5l-1,1.8L23.5,13
	c-0.3-0.2-0.9-0.3-1.5-0.4v2.8c0.5,0.2,1,0.4,1.4,0.7c0.7,0.5,1.4,1.2,1.4,2.4c0,1-0.3,1.8-0.9,2.4c-0.5,0.5-1.2,0.8-1.8,0.9v1.9h-2
	v-1.8c-1-0.1-2-0.3-2.9-0.7l-1-0.3l0.7-1.9l1,0.3c0.7,0.3,1.5,0.4,2.2,0.5v-2.9c-0.6-0.2-1.2-0.5-1.7-0.8c-0.8-0.6-1.3-1.4-1.3-2.6
	c0-1,0.4-1.8,1.2-2.3c0.5-0.4,1.2-0.6,1.8-0.7V9.1H22z M20,12.5c-0.3,0.1-0.5,0.2-0.7,0.3S19,13.1,19,13.4c0,0.4,0.2,0.7,0.5,0.9
	c0.1,0.1,0.3,0.2,0.5,0.3V12.5z M22,19.6c0.2-0.1,0.3-0.2,0.4-0.3c0.2-0.2,0.3-0.4,0.3-0.9c0-0.3-0.1-0.5-0.4-0.7
	c-0.1-0.1-0.2-0.1-0.3-0.2V19.6z"/>
</svg>
