<?xml version="1.0" encoding="utf-8"?>
<!-- Generator: Adobe Illustrator 25.2.1, SVG Export Plug-In . SVG Version: 6.00 Build 0)  -->
<svg version="1.1" id="Layer_1" xmlns="http://www.w3.org/2000/svg" xmlns:xlink="http://www.w3.org/1999/xlink" x="0px" y="0px"
	 viewBox="0 0 52 52" style="enable-background:new 0 0 52 52;" xml:space="preserve">
<path style="fill-rule:evenodd;clip-rule:evenodd;fill:#0F62F9;" d="M11.3,19.5c0-8.4,6.8-15.2,15.2-15.2s15.2,6.8,15.2,15.2
	c0,3.3-0.8,6.5-2.5,9.7c-1.5,2.8-3.5,5.4-5.5,7.9l0,0c-2.4,3.1-5,6.4-6.6,10.2c-0.1,0.2-0.4,0.4-0.6,0.4c-0.3,0-0.5-0.2-0.6-0.4
	c-1.6-3.8-4.2-7.1-6.6-10.2c-2-2.5-4-5.1-5.5-7.9C12.1,26,11.3,22.8,11.3,19.5z M32.7,36.2c3.9-5.1,7.7-9.9,7.7-16.7
	c0-7.6-6.2-13.8-13.8-13.8s-13.8,6.2-13.8,13.8c0,6.9,3.7,11.7,7.7,16.7l0,0c2.2,2.8,4.5,5.8,6.2,9.2C28.2,42,30.5,39.1,32.7,36.2z"
	/>
<path style="fill-rule:evenodd;clip-rule:evenodd;fill:#0F62F9;" d="M19.3,37.1c-2-2.5-4-5.1-5.5-7.9c-1.7-3.2-2.5-6.3-2.5-9.7
	c0-8.4,6.8-15.2,15.2-15.2s15.2,6.8,15.2,15.2c0,3.3-0.8,6.5-2.5,9.7c-1.5,2.8-3.5,5.4-5.5,7.9l0,0c-2.4,3.1-5,6.4-6.6,10.2
	c-0.1,0.2-0.4,0.4-0.6,0.4c-0.3,0-0.5-0.2-0.6-0.4C24.2,43.4,21.7,40.2,19.3,37.1z M34,37.2c1.9-2.5,4-5.1,5.5-8
	c1.7-3.2,2.5-6.4,2.5-9.8C42,10.9,35,4,26.5,4S11,10.9,11,19.5c0,3.4,0.8,6.6,2.5,9.8c1.5,2.8,3.5,5.5,5.5,8l0,0
	c2.4,3.1,4.9,6.4,6.6,10.1c0.2,0.4,0.5,0.6,0.9,0.6s0.8-0.2,0.9-0.6C29,43.6,31.5,40.4,34,37.2L34,37.2z M20.6,36L20.6,36
	c2.1,2.7,4.2,5.5,5.9,8.6c1.7-3.2,3.8-6,5.9-8.6l0,0l0.3,0.2c-2.1,2.7-4.3,5.6-6,8.8c-0.1,0.1-0.1,0.2-0.2,0.4
	c-0.1-0.1-0.1-0.2-0.2-0.4c-1.7-3.2-3.8-6.1-6-8.8l0,0c-3.9-5.1-7.7-9.9-7.7-16.7c0-7.6,6.2-13.8,13.8-13.8s13.8,6.2,13.8,13.8
	c0,6.9-3.7,11.7-7.7,16.7L32.4,36c4-5,7.6-9.8,7.6-16.5C40,12,33.9,6,26.5,6S13,12,13,19.5C13,26.2,16.6,31,20.6,36z"/>
<path style="fill:#5DAC46;" d="M35.9,18.3c-0.5-4.3-4.1-7.8-8.5-8.3c-1.9-0.2-3.8,0.2-5.4,1c-0.3,0.2-0.4,0.6-0.3,0.9
	c0.2,0.3,0.6,0.4,0.9,0.3c1.4-0.7,3.1-1.1,4.7-0.9c3.8,0.4,6.8,3.4,7.3,7.1c0.3,2.6-0.5,5.1-2.4,6.9c-1.8,1.8-4.3,2.7-6.9,2.4
	c-1.8-0.2-3.4-1-4.7-2.3s-2.1-2.9-2.4-4.7c-0.3-2.2,0.2-4.3,1.5-6l0,0h1.4l0,0l1.6,5.4c0.3,0.9,1,1.4,1.9,1.4h4.5c1.1,0,2-0.9,2-2
	v-4.1c0-0.4-0.3-0.6-0.6-0.6h-8l-0.1-0.4c-0.2-0.6-0.7-0.9-1.3-0.9h-1.4c-0.4,0-0.8,0.2-1.1,0.5c-1.5,2-2.1,4.5-1.7,7
	c0.3,2,1.3,3.9,2.8,5.4s3.4,2.4,5.5,2.7c0.4,0.1,0.8,0.1,1.2,0.1c2.5,0,4.9-1,6.8-2.8C35.3,24.2,36.3,21.3,35.9,18.3z M29.9,16.1
	v3.5c0,0.4-0.3,0.7-0.7,0.7h-4.5c-0.3,0-0.6-0.2-0.7-0.5l-1.1-3.7H29.9L29.9,16.1z"/>
<path style="fill:#5DAC46;" d="M23,22.3c-0.7,0-1.3,0.6-1.3,1.3S22.3,25,23,25s1.3-0.6,1.3-1.3S23.8,22.3,23,22.3z"/>
<path style="fill:#5DAC46;" d="M29.9,22.3c-0.7,0-1.3,0.6-1.3,1.3s0.6,1.3,1.3,1.3c0.7,0,1.3-0.6,1.3-1.3S30.6,22.3,29.9,22.3z"/>
</svg>
