<?xml version="1.0" encoding="utf-8"?>
<!-- Generator: Adobe Illustrator 25.2.1, SVG Export Plug-In . SVG Version: 6.00 Build 0)  -->
<svg version="1.1" id="Layer_1" xmlns="http://www.w3.org/2000/svg" xmlns:xlink="http://www.w3.org/1999/xlink" x="0px" y="0px"
	 viewBox="0 0 186.87 270.23" style="enable-background:new 0 0 186.87 270.23;" xml:space="preserve">
<g>
	<path style="fill:none;stroke:#000000;stroke-width:7;stroke-miterlimit:10;" d="M18.82,3.5h149.23c8.46,0,15.32,6.86,15.32,15.32
		v232.59c0,8.46-6.86,15.32-15.32,15.32H18.82c-8.46,0-15.32-6.86-15.32-15.32V18.82C3.5,10.36,10.36,3.5,18.82,3.5z"/>
	<path d="M56.99,117.54h102.98c2.21,0,4,1.79,4,4s-1.79,4-4,4H56.99c-2.21,0-4-1.79-4-4S54.78,117.54,56.99,117.54z"/>
	<path d="M56.99,132.95h70.64c2.21,0,4,1.79,4,4s-1.79,4-4,4H56.99c-2.21,0-4-1.79-4-4C52.99,134.74,54.78,132.95,56.99,132.95z"/>
	<path d="M56.99,164.95h102.98c2.21,0,4,1.79,4,4s-1.79,4-4,4H56.99c-2.21,0-4-1.79-4-4C52.99,166.74,54.78,164.95,56.99,164.95z"/>
	<path d="M56.99,180.61h70.64c2.21,0,4,1.79,4,4s-1.79,4-4,4H56.99c-2.21,0-4-1.79-4-4S54.78,180.61,56.99,180.61z"/>
	<path d="M56.99,212.61h102.98c2.21,0,4,1.79,4,4s-1.79,4-4,4H56.99c-2.21,0-4-1.79-4-4S54.78,212.61,56.99,212.61z"/>
	<path d="M56.99,228.27h70.64c2.21,0,4,1.79,4,4s-1.79,4-4,4H56.99c-2.21,0-4-1.79-4-4S54.78,228.27,56.99,228.27z"/>
	<g style="enable-background:new    ;">
		<path d="M36.88,120.52v28.68c0,0.62-0.2,1.12-0.6,1.5c-0.5,0.47-1.17,0.71-2,0.71c-1.1,0-1.87-0.39-2.3-1.16
			c-0.17-0.3-0.26-0.65-0.26-1.05v-28.68c0-0.82,0.35-1.42,1.05-1.8c0.46-0.26,0.96-0.39,1.5-0.39c0.89,0,1.58,0.27,2.08,0.79
			C36.71,119.5,36.88,119.97,36.88,120.52z"/>
	</g>
	<g style="enable-background:new    ;">
		<path d="M31.42,194.24h10.57c0.52,0,0.95,0.15,1.31,0.45c0.56,0.46,0.84,1.15,0.84,2.06c0,1.12-0.39,1.88-1.18,2.28
			c-0.27,0.14-0.59,0.21-0.97,0.21H29.57c-1.46,0-2.45-0.45-2.96-1.35c-0.37-0.62-0.56-1.28-0.56-2c0-1.95,2.43-5.87,7.3-11.77
			c1.8-2.16,3.04-3.77,3.72-4.83c0.99-1.55,1.48-2.95,1.48-4.21c0-0.92-0.22-1.71-0.67-2.38c-0.73-1.09-1.78-1.63-3.16-1.63
			c-1.66,0-3,0.82-4.02,2.47c-0.44,0.73-1.06,1.1-1.85,1.1c-0.59,0-1.15-0.19-1.68-0.58c-0.53-0.39-0.79-0.9-0.79-1.55
			s0.24-1.34,0.73-2.08c0.7-1.1,1.65-2,2.84-2.71c1.48-0.87,3.1-1.31,4.88-1.31c2.45,0,4.45,0.75,5.99,2.26
			c1.65,1.62,2.47,3.75,2.47,6.38c0,1.8-0.62,3.7-1.85,5.69c-0.82,1.33-2.36,3.35-4.62,6.06C34.47,189.62,32.67,192.1,31.42,194.24z
			"/>
	</g>
	<g style="enable-background:new    ;">
		<path d="M38.55,229.46c1.86,0.59,3.21,1.52,4.04,2.79c0.84,1.29,1.27,3,1.27,5.13c0,2.98-0.86,5.36-2.58,7.15
			c-1.7,1.76-3.98,2.64-6.83,2.64c-3.07,0-5.46-1.04-7.2-3.12c-0.83-1-1.25-1.92-1.25-2.75c0-0.59,0.2-1.1,0.6-1.55
			c0.47-0.53,1.06-0.79,1.76-0.79c0.76,0,1.44,0.44,2.04,1.33c0.97,1.42,2.31,2.13,4.02,2.13c1.3,0,2.35-0.49,3.14-1.48
			c0.73-0.93,1.1-2.16,1.1-3.67c0-2.08-0.69-3.54-2.06-4.4c-0.82-0.49-2.18-0.81-4.1-0.97c-1.6-0.14-2.41-0.89-2.41-2.23
			c0-1.36,0.84-2.09,2.54-2.19c3.65-0.2,5.48-1.9,5.48-5.09c0-1.12-0.29-2.05-0.86-2.81c-0.72-0.93-1.7-1.4-2.94-1.4
			c-1.5,0-2.67,0.72-3.5,2.17c-0.4,0.7-1,1.05-1.78,1.05c-0.67,0-1.28-0.24-1.83-0.71c-0.4-0.36-0.6-0.84-0.6-1.44
			c0-0.66,0.24-1.36,0.73-2.11c0.72-1.12,1.71-1.98,2.99-2.6c1.27-0.63,2.69-0.95,4.25-0.95c2.79,0,4.97,0.85,6.53,2.56
			c1.39,1.52,2.08,3.54,2.08,6.06c0,2.19-0.49,3.88-1.46,5.05C41.04,228.09,39.98,228.82,38.55,229.46z"/>
	</g>
	<path style="fill:none;stroke:#000000;stroke-width:7;stroke-miterlimit:10;" d="M119.37,93c-1.93,1.37-4.23,2.14-6.6,2.2
		c-6.04,0.1-12.17,0.15-18.38,0.14c-7.07,0-14.03-0.07-20.87-0.21c-2.04-0.18-4.01-0.87-5.72-2c-3.88-2.59-5-6.92-6.13-11.23
		c-2-8.07-3.65-15.28-4.94-21.5c0.01-2.24,0.87-4.38,2.42-6c1.55-1.55,3.66-2.42,5.85-2.4h58.38c1.39,0.06,4.28,0.39,5.84,2.48
		s1,4.55,0.42,7.28c-2.08,10-3.92,15.93-5.15,20.11C122.48,88.68,122,91.07,119.37,93z"/>
	<path style="fill:none;stroke:#000000;stroke-width:7;stroke-miterlimit:10;" d="M75.91,29.55c1.35-0.77,2.88-1.19,4.44-1.21
		c4.06-0.05,8.18-0.07,12.35-0.07c4.75,0,9.42,0.04,14,0.11c1.34,0.09,2.65,0.45,3.84,1.07c2.4,1.31,3.29,3.73,4.12,6.16
		c1.45,4.24,2.57,8.59,3.34,13c0.23,1.13,0.46,2.25,0.68,3.38H67.27c0.79-2.23,1.37-4.07,1.75-5.34c0.82-2.75,0.94-3.59,1.81-6.3
		c0.65-2,1.21-3.49,1.65-4.72C73.83,31.93,74.15,30.62,75.91,29.55z"/>
</g>
</svg>
