<?xml version="1.0" encoding="utf-8"?>
<!-- Generator: Adobe Illustrator 25.2.1, SVG Export Plug-In . SVG Version: 6.00 Build 0)  -->
<svg version="1.1" id="Layer_1" xmlns="http://www.w3.org/2000/svg" xmlns:xlink="http://www.w3.org/1999/xlink" x="0px" y="0px"
	 viewBox="0 0 25 25" style="enable-background:new 0 0 25 25;" xml:space="preserve">
<path style="fill:none;stroke:#A0A0A0;stroke-width:2;stroke-linecap:square;stroke-linejoin:round;stroke-miterlimit:10;" d="
	M16,12v2h2"/>
<path style="fill:none;stroke:#A0A0A0;stroke-width:2;stroke-linecap:square;stroke-linejoin:round;stroke-miterlimit:10;" d="
	M16,16v-2h-2"/>
<path style="fill:none;stroke:#A0A0A0;stroke-width:1.5;stroke-linecap:round;stroke-linejoin:round;" d="M18.5,4h-5
	C12.67,4,12,3.32,12,2.5S12.67,1,13.5,1h5C19.33,1,20,1.68,20,2.5S19.33,4,18.5,4z"/>
<path style="fill-rule:evenodd;clip-rule:evenodd;fill:#A0A0A0;" d="M10.39,15.38l-1.44-2.82c-1.01-1.97-3.42-2.74-5.38-1.74
	c-1.97,1.01-2.74,3.42-1.74,5.38l1.44,2.82l1.34-0.68l-1.44-2.82c-0.63-1.23-0.14-2.74,1.09-3.36S7,12.02,7.62,13.25l1.44,2.82
	L10.39,15.38z"/>
<defs>
	<filter id="Adobe_OpacityMaskFilter" filterUnits="userSpaceOnUse" x="0.71" y="12.32" width="12.52" height="12.15">
		<feColorMatrix  type="matrix" values="1 0 0 0 0  0 1 0 0 0  0 0 1 0 0  0 0 0 1 0"/>
	</filter>
</defs>
<mask maskUnits="userSpaceOnUse" x="0.71" y="12.32" width="12.52" height="12.15" id="path-5-inside-1_2_">
	<path style="fill-rule:evenodd;clip-rule:evenodd;fill:#FFFFFF;filter:url(#Adobe_OpacityMaskFilter);" d="M2.73,17.99l1.44,2.82
		c1.01,1.97,3.42,2.74,5.38,1.74c1.97-1.01,2.74-3.42,1.74-5.38l-1.44-2.82L2.73,17.99z"/>
</mask>
<path style="mask:url(#path-5-inside-1_2_);fill:#A0A0A0;" d="M2.73,17.99l-0.68-1.34l-1.34,0.68l0.68,1.34L2.73,17.99z M9.85,14.34
	l1.34-0.68l-0.68-1.34L9.17,13L9.85,14.34z M5.51,20.12L4.07,17.3L1.4,18.67l1.44,2.82L5.51,20.12z M8.87,21.2
	c-1.23,0.63-2.74,0.14-3.36-1.09l-2.67,1.37c1.38,2.7,4.7,3.77,7.4,2.39L8.87,21.2z M9.96,17.84c0.63,1.23,0.14,2.74-1.09,3.36
	l1.37,2.67c2.7-1.38,3.77-4.7,2.39-7.4L9.96,17.84z M8.52,15.02l1.44,2.82l2.67-1.37l-1.44-2.82L8.52,15.02z M9.17,13.01l-7.12,3.65
	l1.37,2.67l7.12-3.65L9.17,13.01z"/>
<path style="fill:#A0A0A0;" d="M10.51,20.67l-0.65-0.38c-0.15,0.25-0.14,0.56,0.02,0.8L10.51,20.67z M10.61,17.47l0.67-0.34l0,0
	L10.61,17.47z M10,16.27H9.25c0,0.12,0.03,0.24,0.08,0.34L10,16.27z M10.59,8.41l0.53,0.53l0,0L10.59,8.41z M12.71,6.29l-0.53-0.53
	l0,0L12.71,6.29z M13,4V3.25c-0.41,0-0.75,0.34-0.75,0.75H13z M19,4h0.75c0-0.41-0.34-0.75-0.75-0.75V4z M19.29,6.29l0.53-0.53l0,0
	L19.29,6.29z M21.41,8.41l-0.53,0.53l0,0L21.41,8.41z M22.75,13V9.83h-1.5V13H22.75z M22.75,14v-1h-1.5v1H22.75z M22.75,19v-5h-1.5
	v5H22.75z M19,22.75c2.06,0,3.75-1.69,3.75-3.75h-1.5c0,1.24-1.01,2.25-2.25,2.25V22.75z M13,22.75h6v-1.5h-6V22.75z M9.89,21.09
	c0.67,0.99,1.81,1.66,3.11,1.66v-1.5c-0.77,0-1.46-0.39-1.87-1L9.89,21.09z M9.94,17.81c0.42,0.81,0.36,1.75-0.08,2.48l1.29,0.76
	c0.69-1.16,0.78-2.64,0.12-3.93L9.94,17.81z M9.33,16.61l0.61,1.2l1.34-0.68l-0.61-1.2L9.33,16.61z M9.25,12.98v3.29h1.5v-3.29
	C10.75,12.98,9.25,12.98,9.25,12.98z M9.25,11.98v1h1.5v-1H9.25z M9.25,9.83v2.15h1.5V9.83H9.25z M10.06,7.88
	c-0.25,0.25-0.45,0.59-0.58,0.9C9.35,9.1,9.25,9.47,9.25,9.83h1.5c0-0.1,0.03-0.28,0.11-0.47c0.08-0.19,0.18-0.34,0.26-0.42
	L10.06,7.88z M12.18,5.76l-2.12,2.12l1.06,1.06l2.12-2.12L12.18,5.76z M12.25,5.59c0,0.06-0.03,0.13-0.07,0.17l1.06,1.06
	c0.32-0.32,0.51-0.77,0.51-1.23H12.25z M12.25,4v1.59h1.5V4H12.25z M19,3.25h-6v1.5h6V3.25z M19.75,5.59V4h-1.5v1.59H19.75z
	 M19.82,5.76c-0.04-0.04-0.07-0.11-0.07-0.17h-1.5c0,0.46,0.19,0.91,0.51,1.23L19.82,5.76z M21.94,7.88l-2.12-2.12l-1.06,1.06
	l2.12,2.12L21.94,7.88z M22.75,9.83c0-0.36-0.1-0.73-0.23-1.05c-0.13-0.32-0.33-0.65-0.58-0.9l-1.06,1.06
	c0.08,0.08,0.18,0.22,0.26,0.42c0.08,0.19,0.11,0.37,0.11,0.47H22.75z"/>
</svg>
