<?xml version="1.0" encoding="utf-8"?>
<!-- Generator: Adobe Illustrator 25.2.1, SVG Export Plug-In . SVG Version: 6.00 Build 0)  -->
<svg version="1.1" id="Layer_1" xmlns="http://www.w3.org/2000/svg" xmlns:xlink="http://www.w3.org/1999/xlink" x="0px" y="0px"
	 viewBox="0 0 24 24" style="enable-background:new 0 0 24 24;" xml:space="preserve">
<path style="fill:none;stroke:#A0A0A0;stroke-width:1.5;stroke-linecap:round;stroke-linejoin:round;" d="M9,22h6c5,0,7-2,7-7V9
	c0-5-2-7-7-7H9C4,2,2,4,2,9v6C2,20,4,22,9,22z"/>
<path style="fill:none;stroke:#A0A0A0;stroke-width:1.5;stroke-linecap:round;stroke-linejoin:round;" d="M2,13h3.76
	c0.76,0,1.45,0.43,1.79,1.11l0.89,1.79C9,17,10,17,10.24,17h3.53c0.76,0,1.45-0.43,1.79-1.11l0.89-1.79
	c0.34-0.68,1.03-1.11,1.79-1.11h3.74"/>
<path style="fill:none;stroke:#A0A0A0;stroke-width:1.5;stroke-linecap:round;stroke-linejoin:round;" d="M6,7h12"/>
<path style="fill:none;stroke:#A0A0A0;stroke-width:1.5;stroke-linecap:round;stroke-linejoin:round;" d="M9,10h6"/>
</svg>
