<?xml version="1.0" encoding="utf-8"?>
<!-- Generator: Adobe Illustrator 25.2.1, SVG Export Plug-In . SVG Version: 6.00 Build 0)  -->
<svg version="1.1" id="Layer_1" xmlns="http://www.w3.org/2000/svg" xmlns:xlink="http://www.w3.org/1999/xlink" x="0px" y="0px"
	 viewBox="0 0 24 24" style="enable-background:new 0 0 24 24;" xml:space="preserve">
<path style="fill:none;stroke:#A0A0A0;stroke-width:1.5;stroke-linecap:round;stroke-linejoin:round;" d="M12.12,12.78
	c-0.07-0.01-0.16-0.01-0.24,0c-1.76-0.06-3.16-1.5-3.16-3.27c0-1.81,1.46-3.28,3.28-3.28c1.81,0,3.28,1.47,3.28,3.28
	C15.27,11.28,13.88,12.72,12.12,12.78z"/>
<path style="fill:none;stroke:#A0A0A0;stroke-width:1.5;stroke-linecap:round;stroke-linejoin:round;" d="M18.74,19.38
	C16.96,21.01,14.6,22,12,22c-2.6,0-4.96-0.99-6.74-2.62c0.1-0.94,0.7-1.86,1.77-2.58c2.74-1.82,7.22-1.82,9.94,0
	C18.04,17.52,18.64,18.44,18.74,19.38z"/>
<path style="fill:none;stroke:#A0A0A0;stroke-width:1.5;stroke-linecap:round;stroke-linejoin:round;" d="M12,22
	c5.52,0,10-4.48,10-10c0-5.52-4.48-10-10-10C6.48,2,2,6.48,2,12C2,17.52,6.48,22,12,22z"/>
</svg>
